<svg xmlns="http://www.w3.org/2000/svg" viewBox="0 0 900 240" width="900" height="240">
<defs>
  <linearGradient id="sky" x1="0" y1="0" x2="0" y2="1">
    <stop offset="0%"   stop-color="#020010"/>
    <stop offset="50%"  stop-color="#080025"/>
    <stop offset="100%" stop-color="#0a0518"/>
  </linearGradient>
  <filter id="ncyan" x="-80%" y="-80%" width="260%" height="260%">
    <feGaussianBlur stdDeviation="4" result="b"/>
    <feMerge><feMergeNode in="b"/><feMergeNode in="b"/><feMergeNode in="SourceGraphic"/></feMerge>
  </filter>
  <filter id="npink" x="-80%" y="-80%" width="260%" height="260%">
    <feGaussianBlur stdDeviation="5" result="b"/>
    <feMerge><feMergeNode in="b"/><feMergeNode in="b"/><feMergeNode in="SourceGraphic"/></feMerge>
  </filter>
  <filter id="nyellow" x="-80%" y="-80%" width="260%" height="260%">
    <feGaussianBlur stdDeviation="4" result="b"/>
    <feMerge><feMergeNode in="b"/><feMergeNode in="SourceGraphic"/></feMerge>
  </filter>
  <filter id="nblue" x="-80%" y="-80%" width="260%" height="260%">
    <feGaussianBlur stdDeviation="6" result="b"/>
    <feMerge><feMergeNode in="b"/><feMergeNode in="b"/><feMergeNode in="SourceGraphic"/></feMerge>
  </filter>
  <filter id="lglow" x="-150%" y="-150%" width="400%" height="400%">
    <feGaussianBlur stdDeviation="10" result="b"/>
    <feMerge><feMergeNode in="b"/><feMergeNode in="b"/><feMergeNode in="SourceGraphic"/></feMerge>
  </filter>
  <filter id="sglow" x="-200%" y="-200%" width="500%" height="500%">
    <feGaussianBlur stdDeviation="18" result="b"/>
    <feMerge><feMergeNode in="b"/><feMergeNode in="SourceGraphic"/></feMerge>
  </filter>
  <filter id="starfilter">
    <feGaussianBlur stdDeviation="1.5" result="b"/>
    <feMerge><feMergeNode in="b"/><feMergeNode in="SourceGraphic"/></feMerge>
  </filter>
  <linearGradient id="road" x1="0" y1="0" x2="0" y2="1">
    <stop offset="0%" stop-color="#0a0520"/>
    <stop offset="100%" stop-color="#060310"/>
  </linearGradient>
  <linearGradient id="reflect-cyan" x1="0" y1="0" x2="0" y2="1">
    <stop offset="0%" stop-color="rgba(0,255,255,0.18)"/>
    <stop offset="100%" stop-color="rgba(0,255,255,0)"/>
  </linearGradient>
  <linearGradient id="reflect-pink" x1="0" y1="0" x2="0" y2="1">
    <stop offset="0%" stop-color="rgba(255,0,200,0.14)"/>
    <stop offset="100%" stop-color="rgba(255,0,200,0)"/>
  </linearGradient>
  <style>
    @keyframes tw{0%,100%{opacity:.15}50%{opacity:1}}
    @keyframes twb{0%,100%{opacity:.2}50%{opacity:.9}}
    .sa{animation:tw 2.2s infinite}.sb{animation:tw 3.0s .6s infinite}
    .sc{animation:twb 1.8s 1.3s infinite}.sd{animation:tw 2.6s .3s infinite}
    .se{animation:twb 3.4s 1.8s infinite}.sf{animation:tw 2.0s .9s infinite}
    .sg{animation:tw 3.7s 2.2s infinite}.sh{animation:twb 1.6s .4s infinite}
    .si{animation:tw 2.8s 1.5s infinite}.sj{animation:tw 3.2s .7s infinite}
    .sk{animation:twb 2.4s 2.4s infinite}.sl{animation:tw 1.5s 1.0s infinite}
    .sm{animation:tw 3.1s 0.2s infinite}.sn{animation:twb 2.1s 1.6s infinite}
    .so{animation:tw 3.6s 0.8s infinite}.sp{animation:twb 1.9s 2.6s infinite}
    .sq{animation:tw 2.7s 1.2s infinite}.sr{animation:twb 3.3s 0.5s infinite}
    .ss{animation:tw 2.3s 2.0s infinite}.st{animation:twb 1.7s 1.4s infinite}
    @keyframes moonp{0%,100%{opacity:.7}50%{opacity:1}}
    .moon{animation:moonp 4s ease-in-out infinite}
    @keyframes wf{0%,100%{opacity:.7}45%{opacity:.3}46%{opacity:.8}60%{opacity:.5}90%{opacity:.9}}
    @keyframes wf2{0%,100%{opacity:.6}30%{opacity:.9}65%{opacity:.2}90%{opacity:.7}}
    @keyframes wf3{0%,100%{opacity:.5}55%{opacity:1}80%{opacity:.3}}
    .w1{animation:wf  3.8s infinite}.w2{animation:wf2 4.5s .8s infinite}
    .w3{animation:wf3 2.9s 1.4s infinite}.w4{animation:wf  5.1s 2.1s infinite}
    .w5{animation:wf2 3.3s 0.5s infinite}.w6{animation:wf3 4.8s 1.8s infinite}
    .w7{animation:wf  2.6s 3.0s infinite}.w8{animation:wf2 3.9s 0.3s infinite}
    @keyframes sp{0%,100%{opacity:.5;r:3}50%{opacity:1;r:5}}
    @keyframes spc{0%,100%{opacity:.6;r:2.5}50%{opacity:1;r:4.5}}
    .spire-y{animation:sp 2s ease-in-out infinite}
    .spire-c{animation:spc 2.5s .5s ease-in-out infinite}
    .spire-p{animation:spc 3s 1s ease-in-out infinite}
    @keyframes c1{from{transform:translateX(-220px)}to{transform:translateX(1060px)}}
    @keyframes c2{from{transform:translateX(-280px)}to{transform:translateX(1060px)}}
    @keyframes c3{from{transform:translateX(-180px)}to{transform:translateX(1060px)}}
    @keyframes c4{from{transform:translateX(-200px)}to{transform:translateX(1060px)}}
    .cl1{animation:c1 32s linear infinite}
    .cl2{animation:c2 44s 14s linear infinite}
    .cl3{animation:c3 25s 8s linear infinite}
    .cl4{animation:c4 50s 28s linear infinite}
    @keyframes cr1{from{transform:translateX(-120px)}to{transform:translateX(1020px)}}
    @keyframes cr2{from{transform:translateX(-120px)}to{transform:translateX(1020px)}}
    @keyframes cr3{from{transform:translateX(-120px)}to{transform:translateX(1020px)}}
    @keyframes cl1m{from{transform:translateX(1020px)}to{transform:translateX(-120px)}}
    @keyframes cl2m{from{transform:translateX(1020px)}to{transform:translateX(-120px)}}
    .car-r1{animation:cr1 9s  0s   linear infinite}
    .car-r2{animation:cr2 13s 5s   linear infinite}
    .car-r3{animation:cr3 11s 9s   linear infinite}
    .car-l1{animation:cl1m 12s 3s  linear infinite}
    .car-l2{animation:cl2m 16s 10s linear infinite}
    @keyframes lf1{0%,72%,77%,82%,100%{opacity:0}73%{opacity:1}75%{opacity:.1}78%{opacity:.9}81%{opacity:.05}}
    @keyframes lf2{0%,55%,60%,65%,100%{opacity:0}56%{opacity:.9}58%{opacity:.08}61%{opacity:.75}64%{opacity:.03}}
    @keyframes lg1{0%,72%,88%,100%{opacity:0}74%{opacity:.35}80%{opacity:.25}86%{opacity:.05}}
    @keyframes lg2{0%,55%,70%,100%{opacity:0}57%{opacity:.28}63%{opacity:.18}68%{opacity:.04}}
    .lt1{animation:lf1 9s  1.5s infinite}
    .lt2{animation:lf2 12s 4.5s infinite}
    .lt1g{animation:lg1 9s  1.5s infinite}
    .lt2g{animation:lg2 12s 4.5s infinite}
    @keyframes nsign{0%,100%{opacity:1}92%{opacity:1}93%{opacity:.1}95%{opacity:.9}97%{opacity:.2}99%{opacity:1}}
    .nsign{animation:nsign 6s infinite}
    @keyframes nsign2{0%,100%{opacity:.9}40%{opacity:.9}41%{opacity:.1}43%{opacity:.8}88%{opacity:.9}89%{opacity:.2}91%{opacity:.9}}
    .nsign2{animation:nsign2 8s 2s infinite}
    @keyframes shoot{0%{transform:translate(0,0);opacity:0}5%{opacity:1}25%{transform:translate(180px,60px);opacity:0}100%{transform:translate(180px,60px);opacity:0}}
    .shoot{animation:shoot 7s 3s infinite}
    @keyframes shoot2{0%{transform:translate(0,0);opacity:0}5%{opacity:.8}20%{transform:translate(140px,45px);opacity:0}100%{opacity:0}}
    .shoot2{animation:shoot2 11s 9s infinite}
  </style>
</defs>

<!-- SKY -->
<rect width="900" height="240" fill="url(#sky)"/>
<ellipse cx="200" cy="60" rx="180" ry="80"  fill="rgba(80,0,180,0.10)" filter="url(#sglow)"/>
<ellipse cx="680" cy="45" rx="160" ry="70"  fill="rgba(0,80,200,0.10)" filter="url(#sglow)"/>
<ellipse cx="440" cy="30" rx="120" ry="50"  fill="rgba(0,160,180,0.07)" filter="url(#sglow)"/>

<!-- MOON -->
<circle class="moon" cx="760" cy="38" r="22" fill="rgba(180,220,255,0.08)" filter="url(#sglow)"/>
<circle class="moon" cx="760" cy="38" r="16" fill="rgba(200,230,255,0.12)" filter="url(#nblue)"/>
<circle cx="760" cy="38" r="13" fill="#e8f4ff" opacity="0.18"/>
<circle cx="760" cy="38" r="13" fill="none" stroke="#a0d4ff" stroke-width="1" opacity="0.55"/>
<circle cx="756" cy="35" r="4"  fill="rgba(0,0,0,0.25)"/>
<circle cx="764" cy="41" r="3"  fill="rgba(0,0,0,0.18)"/>

<!-- STARS -->
<circle class="sa" cx="38"  cy="14"  r="1.4" fill="#fff" filter="url(#starfilter)"/>
<circle class="sb" cx="82"  cy="6"   r="1.0" fill="#c8f0ff"/>
<circle class="sc" cx="128" cy="20"  r="1.3" fill="#fff"/>
<circle class="sd" cx="188" cy="10"  r="1.1" fill="#ffc8f0"/>
<circle class="se" cx="240" cy="26"  r="1.5" fill="#fff" filter="url(#starfilter)"/>
<circle class="sf" cx="298" cy="7"   r="1.0" fill="#c8f0ff"/>
<circle class="sg" cx="348" cy="17"  r="1.3" fill="#fff"/>
<circle class="sh" cx="402" cy="5"   r="1.1" fill="#ffc8f0"/>
<circle class="si" cx="462" cy="22"  r="1.4" fill="#fff" filter="url(#starfilter)"/>
<circle class="sj" cx="518" cy="12"  r="1.0" fill="#c8f0ff"/>
<circle class="sk" cx="580" cy="6"   r="1.3" fill="#fff"/>
<circle class="sl" cx="628" cy="18"  r="1.1" fill="#ffc8f0"/>
<circle class="sm" cx="682" cy="9"   r="1.4" fill="#fff" filter="url(#starfilter)"/>
<circle class="sn" cx="812" cy="14"  r="1.1" fill="#c8f0ff"/>
<circle class="so" cx="858" cy="25"  r="1.0" fill="#fff"/>
<circle class="sp" cx="20"  cy="33"  r="0.9" fill="#ffc8f0"/>
<circle class="sq" cx="162" cy="35"  r="0.9" fill="#fff"/>
<circle class="sr" cx="274" cy="32"  r="1.0" fill="#c8f0ff"/>
<circle class="ss" cx="444" cy="31"  r="0.9" fill="#fff"/>
<circle class="st" cx="560" cy="28"  r="1.1" fill="#ffc8f0"/>
<circle class="sa" cx="710" cy="35"  r="1.0" fill="#fff"/>
<circle class="sd" cx="830" cy="7"   r="1.1" fill="#c8f0ff"/>
<circle class="sg" cx="882" cy="20"  r="0.9" fill="#fff"/>

<!-- Shooting stars -->
<g class="shoot"><line x1="120" y1="18" x2="124" y2="19" stroke="#fff" stroke-width="1.8"/><line x1="108" y1="14" x2="122" y2="18" stroke="rgba(255,255,255,0.4)" stroke-width="0.8"/></g>
<g class="shoot2"><line x1="600" y1="12" x2="604" y2="13" stroke="#c8f0ff" stroke-width="1.5"/><line x1="590" y1="9" x2="602" y2="12" stroke="rgba(200,240,255,0.35)" stroke-width="0.7"/></g>

<!-- MOUNTAINS -->
<path d="M0,182 Q45,130 88,165 Q132,102 178,148 Q222,84 268,135 Q312,72 360,120 Q406,60 452,108 Q498,78 542,120 Q590,90 634,130 Q674,64 720,110 Q760,80 802,117 Q840,92 882,120 L900,122 L900,240 L0,240Z" fill="#0a0518"/>
<path d="M0,182 Q45,130 88,165 Q132,102 178,148 Q222,84 268,135 Q312,72 360,120 Q406,60 452,108 Q498,78 542,120 Q590,90 634,130 Q674,64 720,110 Q760,80 802,117 Q840,92 882,120 L900,122" fill="none" stroke="rgba(140,0,255,0.45)" stroke-width="1.2" filter="url(#npink)"/>
<path d="M0,200 Q58,170 105,188 Q158,153 208,177 Q262,140 320,172 Q374,152 428,180 Q480,160 538,182 Q594,150 650,177 Q707,157 760,182 Q814,164 864,184 L900,186 L900,240 L0,240Z" fill="#0c0820"/>
<path d="M0,200 Q58,170 105,188 Q158,153 208,177 Q262,140 320,172 Q374,152 428,180 Q480,160 538,182 Q594,150 650,177 Q707,157 760,182 Q814,164 864,184 L900,186" fill="none" stroke="rgba(0,220,255,0.5)" stroke-width="1.5" filter="url(#ncyan)"/>

<!-- GROUND -->
<rect x="0" y="215" width="900" height="25" fill="url(#road)"/>
<line x1="0" y1="216" x2="900" y2="216" stroke="rgba(0,255,200,0.35)" stroke-width="1" filter="url(#ncyan)"/>
<line x1="0" y1="239" x2="900" y2="239" stroke="rgba(0,255,200,0.25)" stroke-width="0.8"/>
<line x1="0" y1="227" x2="900" y2="227" stroke="rgba(255,255,255,0.12)" stroke-width="0.8" stroke-dasharray="24,16"/>
<rect x="80"  y="216" width="60"  height="18" fill="url(#reflect-cyan)"  opacity="0.5"/>
<rect x="360" y="216" width="80"  height="18" fill="url(#reflect-cyan)"  opacity="0.6"/>
<rect x="610" y="216" width="70"  height="18" fill="url(#reflect-pink)"  opacity="0.5"/>
<rect x="820" y="216" width="50"  height="18" fill="url(#reflect-cyan)"  opacity="0.45"/>

<!-- BUILDING A — CYAN PAGODA -->
<g>
  <rect x="68" y="155" width="52" height="85" fill="#08051a" stroke="#00ffee" stroke-width="0.9" filter="url(#ncyan)" opacity="0.9"/>
  <rect class="w1" x="79"  y="165" width="9"  height="12" fill="rgba(0,255,238,0.25)" stroke="#00ffee" stroke-width="0.6" filter="url(#ncyan)"/>
  <rect class="w2" x="99"  y="165" width="9"  height="12" fill="rgba(0,255,238,0.20)" stroke="#00ffee" stroke-width="0.6" filter="url(#ncyan)"/>
  <rect class="w3" x="79"  y="186" width="9"  height="12" fill="rgba(0,255,238,0.22)" stroke="#00ffee" stroke-width="0.6" filter="url(#ncyan)"/>
  <rect class="w4" x="99"  y="186" width="9"  height="12" fill="rgba(0,255,238,0.18)" stroke="#00ffee" stroke-width="0.6" filter="url(#ncyan)"/>
  <rect class="w5" x="79"  y="207" width="9"  height="11" fill="rgba(0,255,238,0.15)" stroke="#00ffee" stroke-width="0.6"/>
  <rect class="w6" x="99"  y="207" width="9"  height="11" fill="rgba(0,255,238,0.15)" stroke="#00ffee" stroke-width="0.6"/>
  <line x1="53"  y1="155" x2="135" y2="155" stroke="#00ffee" stroke-width="1.2" filter="url(#ncyan)"/>
  <line x1="53"  y1="155" x2="61"  y2="144" stroke="#00ffee" stroke-width="1.0" filter="url(#ncyan)"/>
  <line x1="135" y1="155" x2="127" y2="144" stroke="#00ffee" stroke-width="1.0" filter="url(#ncyan)"/>
  <line x1="61"  y1="144" x2="127" y2="144" stroke="#00ffee" stroke-width="1.0" filter="url(#ncyan)"/>
  <line x1="53"  y1="155" x2="40"  y2="150" stroke="rgba(0,255,238,0.6)" stroke-width="0.8"/>
  <line x1="135" y1="155" x2="148" y2="150" stroke="rgba(0,255,238,0.6)" stroke-width="0.8"/>
  <line x1="65"  y1="144" x2="73"  y2="133" stroke="#00ffee" stroke-width="0.9" filter="url(#ncyan)"/>
  <line x1="123" y1="144" x2="115" y2="133" stroke="#00ffee" stroke-width="0.9" filter="url(#ncyan)"/>
  <line x1="73"  y1="133" x2="115" y2="133" stroke="#00ffee" stroke-width="0.9" filter="url(#ncyan)"/>
  <line x1="65"  y1="144" x2="54"  y2="140" stroke="rgba(0,255,238,0.5)" stroke-width="0.7"/>
  <line x1="123" y1="144" x2="134" y2="140" stroke="rgba(0,255,238,0.5)" stroke-width="0.7"/>
  <line x1="77"  y1="133" x2="84"  y2="122" stroke="#00ffee" stroke-width="0.9" filter="url(#ncyan)"/>
  <line x1="111" y1="133" x2="104" y2="122" stroke="#00ffee" stroke-width="0.9" filter="url(#ncyan)"/>
  <line x1="84"  y1="122" x2="104" y2="122" stroke="#00ffee" stroke-width="0.9" filter="url(#ncyan)"/>
  <line x1="94"  y1="122" x2="94"  y2="98"  stroke="#00ffee" stroke-width="1.2" filter="url(#ncyan)"/>
  <line x1="89"  y1="113" x2="99"  y2="113" stroke="#00ffee" stroke-width="0.8" filter="url(#ncyan)"/>
  <line x1="90"  y1="106" x2="98"  y2="106" stroke="#00ffee" stroke-width="0.7"/>
  <circle class="spire-c" cx="94" cy="97" r="3.5" fill="#00ffee" filter="url(#ncyan)"/>
  <circle cx="94" cy="97" r="1.8" fill="#ffffff"/>
</g>

<!-- BUILDING B — PINK PAGODA CENTER -->
<g>
  <rect x="378" y="112" width="66" height="128" fill="#0a0318" stroke="#ff00cc" stroke-width="0.9" filter="url(#npink)" opacity="0.95"/>
  <rect class="w2" x="390" y="123" width="12" height="16" fill="rgba(255,0,200,0.28)" stroke="#ff00cc" stroke-width="0.6" filter="url(#npink)"/>
  <rect class="w5" x="410" y="123" width="12" height="16" fill="rgba(255,0,200,0.22)" stroke="#ff00cc" stroke-width="0.6" filter="url(#npink)"/>
  <rect class="w1" x="390" y="148" width="12" height="16" fill="rgba(255,0,200,0.25)" stroke="#ff00cc" stroke-width="0.6" filter="url(#npink)"/>
  <rect class="w4" x="410" y="148" width="12" height="16" fill="rgba(255,0,200,0.20)" stroke="#ff00cc" stroke-width="0.6" filter="url(#npink)"/>
  <rect class="w7" x="390" y="173" width="12" height="16" fill="rgba(255,0,200,0.22)" stroke="#ff00cc" stroke-width="0.6"/>
  <rect class="w3" x="410" y="173" width="12" height="16" fill="rgba(255,0,200,0.18)" stroke="#ff00cc" stroke-width="0.6"/>
  <rect class="w8" x="390" y="198" width="12" height="15" fill="rgba(255,0,200,0.15)" stroke="#ff00cc" stroke-width="0.6"/>
  <rect class="w6" x="410" y="198" width="12" height="15" fill="rgba(255,0,200,0.15)" stroke="#ff00cc" stroke-width="0.6"/>
  <line x1="356" y1="112" x2="466" y2="112" stroke="#ff00cc" stroke-width="1.4" filter="url(#npink)"/>
  <line x1="356" y1="112" x2="365" y2="100" stroke="#ff00cc" stroke-width="1.2" filter="url(#npink)"/>
  <line x1="466" y1="112" x2="457" y2="100" stroke="#ff00cc" stroke-width="1.2" filter="url(#npink)"/>
  <line x1="365" y1="100" x2="457" y2="100" stroke="#ff00cc" stroke-width="1.2" filter="url(#npink)"/>
  <line x1="356" y1="112" x2="342" y2="107" stroke="rgba(255,0,200,0.5)" stroke-width="0.9"/>
  <line x1="466" y1="112" x2="480" y2="107" stroke="rgba(255,0,200,0.5)" stroke-width="0.9"/>
  <line x1="370" y1="100" x2="380" y2="88"  stroke="#ff00cc" stroke-width="1.0" filter="url(#npink)"/>
  <line x1="452" y1="100" x2="442" y2="88"  stroke="#ff00cc" stroke-width="1.0" filter="url(#npink)"/>
  <line x1="380" y1="88"  x2="442" y2="88"  stroke="#ff00cc" stroke-width="1.0" filter="url(#npink)"/>
  <line x1="385" y1="88"  x2="395" y2="76"  stroke="#ff00cc" stroke-width="0.9" filter="url(#npink)"/>
  <line x1="437" y1="88"  x2="427" y2="76"  stroke="#ff00cc" stroke-width="0.9" filter="url(#npink)"/>
  <line x1="395" y1="76"  x2="427" y2="76"  stroke="#ff00cc" stroke-width="0.9" filter="url(#npink)"/>
  <line x1="400" y1="76"  x2="408" y2="63"  stroke="#ff00cc" stroke-width="0.9" filter="url(#npink)"/>
  <line x1="422" y1="76"  x2="414" y2="63"  stroke="#ff00cc" stroke-width="0.9" filter="url(#npink)"/>
  <line x1="408" y1="63"  x2="414" y2="63"  stroke="#ff00cc" stroke-width="0.9" filter="url(#npink)"/>
  <line x1="411" y1="63"  x2="411" y2="30"  stroke="#ff00cc" stroke-width="1.4" filter="url(#npink)"/>
  <line x1="406" y1="54"  x2="416" y2="54"  stroke="#ff00cc" stroke-width="0.9" filter="url(#npink)"/>
  <line x1="407" y1="46"  x2="415" y2="46"  stroke="#ff00cc" stroke-width="0.8" filter="url(#npink)"/>
  <line x1="408" y1="39"  x2="414" y2="39"  stroke="#ff00cc" stroke-width="0.7"/>
  <circle class="spire-p" cx="411" cy="29" r="4"   fill="#ff00cc" filter="url(#npink)"/>
  <circle cx="411" cy="29" r="2"   fill="#ffffff"/>
</g>

<!-- BUILDING C — YELLOW TEMPLE RIGHT -->
<g>
  <rect x="620" y="158" width="98" height="82" fill="#0a0710" stroke="#ffee00" stroke-width="0.9" filter="url(#nyellow)" opacity="0.88"/>
  <line x1="636" y1="158" x2="636" y2="240" stroke="rgba(255,238,0,0.35)" stroke-width="0.7"/>
  <line x1="653" y1="158" x2="653" y2="240" stroke="rgba(255,238,0,0.35)" stroke-width="0.7"/>
  <line x1="670" y1="158" x2="670" y2="240" stroke="rgba(255,238,0,0.35)" stroke-width="0.7"/>
  <line x1="687" y1="158" x2="687" y2="240" stroke="rgba(255,238,0,0.35)" stroke-width="0.7"/>
  <line x1="704" y1="158" x2="704" y2="240" stroke="rgba(255,238,0,0.35)" stroke-width="0.7"/>
  <line x1="598" y1="158" x2="740" y2="158" stroke="#ffee00" stroke-width="1.3" filter="url(#nyellow)"/>
  <line x1="598" y1="158" x2="608" y2="145" stroke="#ffee00" stroke-width="1.1" filter="url(#nyellow)"/>
  <line x1="740" y1="158" x2="730" y2="145" stroke="#ffee00" stroke-width="1.1" filter="url(#nyellow)"/>
  <line x1="608" y1="145" x2="730" y2="145" stroke="#ffee00" stroke-width="1.1" filter="url(#nyellow)"/>
  <line x1="610" y1="145" x2="620" y2="132" stroke="#ffee00" stroke-width="1.0" filter="url(#nyellow)"/>
  <line x1="728" y1="145" x2="718" y2="132" stroke="#ffee00" stroke-width="1.0" filter="url(#nyellow)"/>
  <line x1="620" y1="132" x2="718" y2="132" stroke="#ffee00" stroke-width="1.0" filter="url(#nyellow)"/>
  <line x1="598" y1="158" x2="583" y2="153" stroke="rgba(255,238,0,0.5)" stroke-width="0.8"/>
  <line x1="740" y1="158" x2="755" y2="153" stroke="rgba(255,238,0,0.5)" stroke-width="0.8"/>
  <rect class="w1" x="628" y="165" width="10" height="13" fill="rgba(255,238,0,0.28)" stroke="#ffee00" stroke-width="0.6" filter="url(#nyellow)"/>
  <rect class="w3" x="645" y="165" width="10" height="13" fill="rgba(255,238,0,0.22)" stroke="#ffee00" stroke-width="0.6"/>
  <rect class="w5" x="662" y="165" width="10" height="13" fill="rgba(255,238,0,0.25)" stroke="#ffee00" stroke-width="0.6"/>
  <rect class="w7" x="679" y="165" width="10" height="13" fill="rgba(255,238,0,0.20)" stroke="#ffee00" stroke-width="0.6"/>
  <rect class="w2" x="696" y="165" width="10" height="13" fill="rgba(255,238,0,0.22)" stroke="#ffee00" stroke-width="0.6"/>
  <line x1="669" y1="132" x2="669" y2="110" stroke="#ffee00" stroke-width="1.2" filter="url(#nyellow)"/>
  <line x1="664" y1="122" x2="674" y2="122" stroke="#ffee00" stroke-width="0.8"/>
  <circle class="spire-y" cx="669" cy="109" r="3.5" fill="#ffee00" filter="url(#nyellow)"/>
  <circle cx="669" cy="109" r="2"   fill="#ffffff"/>
</g>

<!-- BUILDING D — PURPLE MID LEFT -->
<g opacity="0.80">
  <rect x="228" y="168" width="32" height="72" fill="#080318" stroke="#aa00ff" stroke-width="0.8" filter="url(#npink)"/>
  <line x1="215" y1="168" x2="272" y2="168" stroke="#aa00ff" stroke-width="1.0" filter="url(#npink)"/>
  <line x1="215" y1="168" x2="222" y2="158" stroke="#aa00ff" stroke-width="0.9" filter="url(#npink)"/>
  <line x1="272" y1="168" x2="265" y2="158" stroke="#aa00ff" stroke-width="0.9" filter="url(#npink)"/>
  <line x1="222" y1="158" x2="265" y2="158" stroke="#aa00ff" stroke-width="0.9" filter="url(#npink)"/>
  <line x1="224" y1="158" x2="231" y2="148" stroke="#aa00ff" stroke-width="0.8" filter="url(#npink)"/>
  <line x1="263" y1="158" x2="256" y2="148" stroke="#aa00ff" stroke-width="0.8" filter="url(#npink)"/>
  <line x1="231" y1="148" x2="256" y2="148" stroke="#aa00ff" stroke-width="0.8" filter="url(#npink)"/>
  <line x1="244" y1="148" x2="244" y2="130" stroke="#aa00ff" stroke-width="1.0" filter="url(#npink)"/>
  <rect class="w4" x="233" y="176" width="8" height="11" fill="rgba(170,0,255,0.30)" stroke="#aa00ff" stroke-width="0.6"/>
  <rect class="w6" x="247" y="176" width="8" height="11" fill="rgba(170,0,255,0.25)" stroke="#aa00ff" stroke-width="0.6"/>
  <circle class="spire-p" cx="244" cy="129" r="3" fill="#aa00ff" filter="url(#npink)"/>
</g>

<!-- BUILDING E — FAR RIGHT CYAN SMALL -->
<g opacity="0.70">
  <rect x="824" y="176" width="26" height="64" fill="#030818" stroke="#00ffee" stroke-width="0.7" filter="url(#ncyan)"/>
  <line x1="812" y1="176" x2="862" y2="176" stroke="#00ffee" stroke-width="0.9" filter="url(#ncyan)"/>
  <line x1="812" y1="176" x2="818" y2="167" stroke="#00ffee" stroke-width="0.8" filter="url(#ncyan)"/>
  <line x1="862" y1="176" x2="856" y2="167" stroke="#00ffee" stroke-width="0.8" filter="url(#ncyan)"/>
  <line x1="818" y1="167" x2="856" y2="167" stroke="#00ffee" stroke-width="0.8" filter="url(#ncyan)"/>
  <line x1="820" y1="167" x2="826" y2="157" stroke="#00ffee" stroke-width="0.7" filter="url(#ncyan)"/>
  <line x1="854" y1="167" x2="848" y2="157" stroke="#00ffee" stroke-width="0.7" filter="url(#ncyan)"/>
  <line x1="826" y1="157" x2="848" y2="157" stroke="#00ffee" stroke-width="0.7" filter="url(#ncyan)"/>
  <line x1="837" y1="157" x2="837" y2="140" stroke="#00ffee" stroke-width="0.9" filter="url(#ncyan)"/>
  <rect class="w3" x="828" y="183" width="7" height="10" fill="rgba(0,255,238,0.28)" stroke="#00ffee" stroke-width="0.6"/>
  <rect class="w7" x="839" y="183" width="7" height="10" fill="rgba(0,255,238,0.22)" stroke="#00ffee" stroke-width="0.6"/>
  <circle class="spire-c" cx="837" cy="139" r="2.8" fill="#00ffee" filter="url(#ncyan)"/>
</g>

<!-- NEON SIGNS -->
<g class="nsign" filter="url(#ncyan)">
  <rect x="72" y="225" width="40" height="10" rx="1" fill="none" stroke="#00ffee" stroke-width="0.8"/>
  <text x="92" y="233" text-anchor="middle" fill="#00ffee" font-size="6" font-family="monospace">OPEN</text>
</g>
<g class="nsign2" filter="url(#npink)">
  <rect x="382" y="223" width="55" height="11" rx="1" fill="none" stroke="#ff00cc" stroke-width="0.8"/>
  <text x="410" y="231" text-anchor="middle" fill="#ff00cc" font-size="6" font-family="monospace">SUYASH.DEV</text>
</g>

<!-- CLOUDS -->
<g class="cl1">
  <ellipse cx="160" cy="52" rx="44"  ry="14" fill="#12082a" opacity="0.85"/>
  <ellipse cx="136" cy="56" rx="28"  ry="11" fill="#12082a" opacity="0.80"/>
  <ellipse cx="186" cy="57" rx="26"  ry="10" fill="#12082a" opacity="0.80"/>
  <ellipse cx="160" cy="50" rx="36"  ry="12" fill="none" stroke="rgba(170,0,255,0.5)" stroke-width="0.8" filter="url(#npink)"/>
</g>
<g class="cl2">
  <ellipse cx="270" cy="36" rx="58"  ry="16" fill="#0a1228" opacity="0.80"/>
  <ellipse cx="242" cy="40" rx="36"  ry="12" fill="#0a1228" opacity="0.75"/>
  <ellipse cx="300" cy="41" rx="32"  ry="11" fill="#0a1228" opacity="0.75"/>
  <ellipse cx="270" cy="34" rx="44"  ry="13" fill="none" stroke="rgba(0,200,255,0.45)" stroke-width="0.8" filter="url(#ncyan)"/>
</g>
<g class="cl3">
  <ellipse cx="490" cy="24" rx="48"  ry="10" fill="#080a20" opacity="0.75"/>
  <ellipse cx="466" cy="27" rx="30"  ry="8"  fill="#080a20" opacity="0.70"/>
  <ellipse cx="516" cy="28" rx="28"  ry="7"  fill="#080a20" opacity="0.70"/>
  <ellipse cx="490" cy="23" rx="38"  ry="9"  fill="none" stroke="rgba(100,0,255,0.40)" stroke-width="0.7" filter="url(#npink)"/>
</g>
<g class="cl4">
  <ellipse cx="690" cy="43" rx="36"  ry="11" fill="#060818" opacity="0.70"/>
  <ellipse cx="670" cy="46" rx="24"  ry="9"  fill="#060818" opacity="0.65"/>
  <ellipse cx="712" cy="47" rx="22"  ry="8"  fill="#060818" opacity="0.65"/>
  <ellipse cx="690" cy="42" rx="28"  ry="9"  fill="none" stroke="rgba(0,180,255,0.38)" stroke-width="0.7"/>
</g>

<!-- CARS -->
<g class="car-r1">
  <rect x="8"  y="224" width="46" height="11" rx="3" fill="#0a0820" stroke="rgba(0,255,238,0.7)" stroke-width="0.7"/>
  <rect x="14" y="218" width="32" height="8"  rx="2" fill="#080618" stroke="rgba(0,255,238,0.5)" stroke-width="0.5"/>
  <ellipse cx="54" cy="229" rx="10" ry="5" fill="rgba(0,255,238,0.18)" filter="url(#ncyan)"/>
  <circle  cx="54" cy="229" r="2.5" fill="#00ffee" filter="url(#ncyan)"/>
  <circle  cx="54" cy="229" r="1.2" fill="#ffffff"/>
  <circle cx="10" cy="229" r="1.8" fill="#ff2200" filter="url(#npink)"/>
  <circle cx="22" cy="235" r="3.8" fill="#060410" stroke="rgba(0,255,238,0.5)" stroke-width="0.8"/>
  <circle cx="44" cy="235" r="3.8" fill="#060410" stroke="rgba(0,255,238,0.5)" stroke-width="0.8"/>
  <ellipse cx="33" cy="239" rx="22" ry="2" fill="rgba(0,255,238,0.12)"/>
</g>
<g class="car-r2">
  <rect x="8"  y="223" width="50" height="12" rx="2" fill="#0a0515" stroke="rgba(255,0,200,0.65)" stroke-width="0.7"/>
  <rect x="13" y="217" width="36" height="8"  rx="2" fill="#080312" stroke="rgba(255,0,200,0.45)" stroke-width="0.5"/>
  <ellipse cx="58" cy="229" rx="11" ry="5" fill="rgba(255,0,200,0.16)" filter="url(#npink)"/>
  <circle  cx="58" cy="229" r="2.5" fill="#ff44cc" filter="url(#npink)"/>
  <circle  cx="58" cy="229" r="1.2" fill="#ffffff"/>
  <circle  cx="10" cy="229" r="1.8" fill="#ff2200" filter="url(#npink)"/>
  <circle  cx="25" cy="235" r="3.8" fill="#060210" stroke="rgba(255,0,200,0.5)" stroke-width="0.8"/>
  <circle  cx="48" cy="235" r="3.8" fill="#060210" stroke="rgba(255,0,200,0.5)" stroke-width="0.8"/>
  <ellipse cx="33" cy="239" rx="24" ry="2" fill="rgba(255,0,200,0.10)"/>
</g>
<g class="car-r3">
  <rect x="8"  y="225" width="38" height="10" rx="3" fill="#080810" stroke="rgba(255,238,0,0.60)" stroke-width="0.6"/>
  <rect x="12" y="219" width="26" height="7"  rx="2" fill="#06060e" stroke="rgba(255,238,0,0.40)" stroke-width="0.5"/>
  <ellipse cx="46" cy="230" rx="9"  ry="4" fill="rgba(255,238,0,0.18)" filter="url(#nyellow)"/>
  <circle  cx="46" cy="230" r="2"   fill="#ffee44" filter="url(#nyellow)"/>
  <circle  cx="46" cy="230" r="1"   fill="#ffffff"/>
  <circle  cx="10" cy="230" r="1.5" fill="#ff2200"/>
  <circle  cx="20" cy="235" r="3.2" fill="#050508" stroke="rgba(255,238,0,0.45)" stroke-width="0.7"/>
  <circle  cx="38" cy="235" r="3.2" fill="#050508" stroke="rgba(255,238,0,0.45)" stroke-width="0.7"/>
  <ellipse cx="27" cy="239" rx="18" ry="1.5" fill="rgba(255,238,0,0.10)"/>
</g>
<g class="car-l1">
  <rect x="846" y="224" width="46" height="11" rx="3" fill="#0a0820" stroke="rgba(0,255,238,0.65)" stroke-width="0.7"/>
  <rect x="848" y="218" width="34" height="8"  rx="2" fill="#080618" stroke="rgba(0,255,238,0.45)" stroke-width="0.5"/>
  <ellipse cx="846" cy="229" rx="10" ry="5" fill="rgba(0,255,238,0.16)" filter="url(#ncyan)"/>
  <circle  cx="846" cy="229" r="2.4" fill="#00ffee" filter="url(#ncyan)"/>
  <circle  cx="846" cy="229" r="1.2" fill="#ffffff"/>
  <circle  cx="890" cy="229" r="1.8" fill="#ff2200"/>
  <circle  cx="858" cy="235" r="3.8" fill="#060410" stroke="rgba(0,255,238,0.5)" stroke-width="0.8"/>
  <circle  cx="880" cy="235" r="3.8" fill="#060410" stroke="rgba(0,255,238,0.5)" stroke-width="0.8"/>
  <ellipse cx="869" cy="239" rx="22" ry="2" fill="rgba(0,255,238,0.10)"/>
</g>
<g class="car-l2">
  <rect x="848" y="225" width="40" height="10" rx="2" fill="#0a0515" stroke="rgba(255,0,200,0.60)" stroke-width="0.6"/>
  <rect x="850" y="219" width="28" height="7"  rx="2" fill="#080312" stroke="rgba(255,0,200,0.40)" stroke-width="0.5"/>
  <ellipse cx="848" cy="230" rx="9" ry="4" fill="rgba(255,0,200,0.15)" filter="url(#npink)"/>
  <circle  cx="848" cy="230" r="2.2" fill="#ff44cc" filter="url(#npink)"/>
  <circle  cx="848" cy="230" r="1.1" fill="#ffffff"/>
  <circle  cx="887" cy="230" r="1.6" fill="#ff2200"/>
  <circle  cx="860" cy="235" r="3.2" fill="#060210" stroke="rgba(255,0,200,0.45)" stroke-width="0.7"/>
  <circle  cx="879" cy="235" r="3.2" fill="#060210" stroke="rgba(255,0,200,0.45)" stroke-width="0.7"/>
  <ellipse cx="870" cy="239" rx="20" ry="1.5" fill="rgba(255,0,200,0.09)"/>
</g>

<!-- LIGHTNING -->
<ellipse class="lt1g" cx="810" cy="100" rx="120" ry="160" fill="rgba(0,220,255,0.22)" filter="url(#sglow)"/>
<ellipse class="lt2g" cx="850" cy="80"  rx="90"  ry="120" fill="rgba(200,100,255,0.18)" filter="url(#sglow)"/>
<g class="lt1">
  <polyline points="825,0 804,55 820,52 792,118 810,114 776,196 794,192 762,258" stroke="rgba(0,220,255,0.50)" stroke-width="12" fill="none" stroke-linejoin="round" filter="url(#lglow)"/>
  <polyline points="825,0 804,55 820,52 792,118 810,114 776,196 794,192 762,258" stroke="rgba(100,240,255,0.85)" stroke-width="2.5" fill="none" stroke-linejoin="round"/>
  <polyline points="825,0 804,55 820,52 792,118 810,114 776,196" stroke="#ffffff" stroke-width="1" fill="none" stroke-linejoin="round"/>
  <polyline points="792,118 756,146 738,140" stroke="rgba(0,220,255,0.75)" stroke-width="1.3" fill="none" filter="url(#ncyan)"/>
  <polyline points="810,114 840,138 854,132" stroke="rgba(0,220,255,0.65)" stroke-width="1.1" fill="none"/>
  <polyline points="804,55 832,74 846,68"   stroke="rgba(100,240,255,0.55)" stroke-width="1.0" fill="none"/>
</g>
<g class="lt2">
  <polyline points="860,0 848,44 860,42 842,96 856,93 834,162" stroke="rgba(200,0,255,0.45)" stroke-width="9" fill="none" stroke-linejoin="round" filter="url(#lglow)"/>
  <polyline points="860,0 848,44 860,42 842,96 856,93 834,162" stroke="rgba(220,100,255,0.80)" stroke-width="2" fill="none" stroke-linejoin="round"/>
  <polyline points="860,0 848,44 860,42 842,96" stroke="#ffffff" stroke-width="0.9" fill="none"/>
  <polyline points="842,96 866,112 878,107" stroke="rgba(200,100,255,0.65)" stroke-width="1.1" fill="none"/>
</g>

<rect x="0" y="205" width="900" height="35" fill="rgba(5,2,15,0.30)"/>
</svg>
